<svg width="329" height="354" viewBox="0 0 329 354" xmlns="http://www.w3.org/2000/svg"><g fill="#000000" fill-rule="evenodd"><path d="M45.36 332c1.11 12.25 11.1 21.15 23.31 21.15h191.66c12.21 0 22.2-9.27 23.31-21.14l21.46-225.47H23.9l21.46 225.47zm166.13-155c0-6.3 5.18-11.87 11.84-11.87 6.29 0 11.84 5.2 11.84 11.87v105.69c0 6.3-5.18 11.86-11.84 11.86-6.29 0-11.84-5.19-11.84-11.86V177zm-58.83 0c0-6.3 5.18-11.87 11.84-11.87 6.29 0 11.84 5.2 11.84 11.87v105.69c0 6.3-5.18 11.86-11.84 11.86-6.29 0-11.84-5.19-11.84-11.86V177zm-58.46 0c0-6.3 5.18-11.87 11.84-11.87 6.29 0 11.84 5.2 11.84 11.87v105.69c0 6.3-5.18 11.86-11.84 11.86-6.29 0-11.84-5.19-11.84-11.86V177z" fill-rule="nonzero"/><path d="M305.1 36.08h-93.61V24.22A23.24 23.24 0 0 0 188.18.85h-46.99a23.24 23.24 0 0 0-23.31 23.37v11.86H23.9A23.24 23.24 0 0 0 .59 59.45 23.24 23.24 0 0 0 23.9 82.8h281.2a23.24 23.24 0 0 0 23.31-23.36 23.24 23.24 0 0 0-23.31-23.37z"/></g></svg>
