<svg width="457" height="457" viewBox="0 0 457 457" xmlns="http://www.w3.org/2000/svg"><path d="M228.5 457C102.3 457 0 354.7 0 228.5S102.3 0 228.5 0 457 102.3 457 228.5 354.7 457 228.5 457zm-89.47-112.86a17.26 17.26 0 0 0 17.4 15.86h143.14c9.11 0 16.57-6.95 17.4-15.86L333 175H123l16.03 169.14zm124.06-116.28c0-4.73 3.87-8.9 8.84-8.9 4.7 0 8.85 3.89 8.85 8.9v79.28c0 4.73-3.87 8.9-8.85 8.9-4.7 0-8.84-3.89-8.84-8.9v-79.28zm-43.93 0c0-4.73 3.87-8.9 8.84-8.9 4.7 0 8.84 3.89 8.84 8.9v79.28c0 4.73-3.87 8.9-8.84 8.9-4.7 0-8.84-3.89-8.84-8.9v-79.28zm-43.66 0c0-4.73 3.87-8.9 8.84-8.9 4.7 0 8.84 3.89 8.84 8.9v79.28c0 4.73-3.86 8.9-8.84 8.9-4.7 0-8.84-3.89-8.84-8.9v-79.28zm158.08-105.64h-69.96v-8.83c0-9.66-7.74-17.39-17.42-17.39h-35.12a17.33 17.33 0 0 0-17.42 17.39v8.83h-70.24a17.33 17.33 0 0 0-17.42 17.4c0 9.65 7.74 17.38 17.42 17.38h210.16c9.68 0 17.42-7.73 17.42-17.39s-7.74-17.39-17.42-17.39z" fill="#63BDE2" fill-rule="evenodd"/></svg>
